PathFileType  4	(X/Y/Z) W:\OA_GaitRetraining\OpenSimAllSubjects\Subject_114\Gait\Week1\Files_W_HJCs\
DataRate	CameraRate	NumFrames	NumMarkers	Units	OrigDataRate	OrigDataStartFrame	OrigNumFrames
  100.0		  100.0		    5		     57		 mm	  100.0	      173	    460
Frame#	Time	r_knee			r_shank(antsup)			r_ankle			r_calc			r_5meta			r_toe			L_knee			L_shank(ant_sup)			L_ankle			L_calc			L_5meta			L_toe			r_mknee			r_mankle			L_mknee			L_mankle			r_sh2			r_sh3			r_sh4			L_sh2			L_sh3			r_thigh1			r_thigh2			r_thigh3			r_thigh4			r_thigh5			L_thigh1			L_thigh2			L_thigh3			L_thigh4			r.ASIS			r.PSIS			L.ASIS			L.PSIS			C7			R_Shoulder			L_Shoulder			R_Sternum			L_Sternum			R_HJC			L_HJC			R_HJC_reg			L_HJC_reg			midPSIS			midASIS			midHJC			midPelvis			R_KJC			L_KJC			R_AJC			L_AJC			R_AJC_proj			R_5meta_proj			R_toe_proj			L_AJC_proj			L_5meta_proj			L_toe_proj			
		X1	Y1	Z1	X2	Y2	Z2	X3	Y3	Z3	X4	Y4	Z4	X5	Y5	Z5	X6	Y6	Z6	X7	Y7	Z7	X8	Y8	Z8	X9	Y9	Z9	X10	Y10	Z10	X11	Y11	Z11	X12	Y12	Z12	X13	Y13	Z13	X14	Y14	Z14	X15	Y15	Z15	X16	Y16	Z16	X17	Y17	Z17	X18	Y18	Z18	X19	Y19	Z19	X20	Y20	Z20	X21	Y21	Z21	X22	Y22	Z22	X23	Y23	Z23	X24	Y24	Z24	X25	Y25	Z25	X26	Y26	Z26	X27	Y27	Z27	X28	Y28	Z28	X29	Y29	Z29	X30	Y30	Z30	X31	Y31	Z31	X32	Y32	Z32	X33	Y33	Z33	X34	Y34	Z34	X35	Y35	Z35	X36	Y36	Z36	X37	Y37	Z37	X38	Y38	Z38	X39	Y39	Z39	X40	Y40	Z40	X41	Y41	Z41	X42	Y42	Z42	X43	Y43	Z43	X44	Y44	Z44	X45	Y45	Z45	X46	Y46	Z46	X47	Y47	Z47	X48	Y48	Z48	X49	Y49	Z49	X50	Y50	Z50	X51	Y51	Z51	X52	Y52	Z52	X53	Y53	Z53	X54	Y54	Z54	X55	Y55	Z55	X56	Y56	Z56	X57	Y57	Z57	

173	1.72000	1169.296	503.210	-321.100	1221.912	435.883	-325.050	1250.229	111.881	-324.508	1194.608	68.152	-372.071	1361.370	40.855	-301.569	1429.558	80.659	-362.141	978.675	488.596	-691.867	988.564	422.687	-666.169	809.366	116.742	-658.381	740.474	76.244	-599.565	893.924	42.346	-692.504	968.116	77.827	-641.327	1221.755	499.963	-461.300	1290.523	127.978	-413.835	989.139	472.729	-540.454	839.038	122.592	-563.316	1239.274	327.094	-313.393	1141.756	422.459	-314.679	1158.643	308.171	-307.770	909.218	455.373	-698.819	876.568	338.691	-707.123	1137.154	781.816	-293.588	1177.288	689.504	-300.530	1135.487	632.093	-290.093	1033.057	736.816	-292.963	1074.463	635.336	-303.009	1103.843	711.809	-705.403	1083.978	586.609	-679.593	1012.392	730.067	-751.852	973.780	604.597	-719.267	1157.672	954.107	-346.767	911.639	1021.923	-461.368	1157.896	948.737	-688.646	909.658	1026.035	-548.945	964.668	1400.458	-517.433	1072.992	1407.219	-407.765	1062.440	1383.984	-647.605	1117.246	1328.727	-504.839	1115.295	1330.664	-552.195	1046.695	865.823	-424.397	1039.180	847.324	-608.659	1062.805	853.689	-399.850	1057.708	864.270	-625.212	910.649	1023.979	-505.156	1157.784	951.422	-517.706	1042.938	856.574	-516.528	1034.216	987.701	-511.431	1195.525	501.587	-391.200	983.907	480.662	-616.160	1270.376	119.929	-369.171	824.202	119.667	-610.848	1270.376	0.000	-369.171	1361.370	0.000	-301.569	1429.558	0.000	-362.141	824.202	0.000	-610.848	893.924	0.000	-692.504	968.116	0.000	-641.327
174	1.73000	1169.356	503.262	-321.046	1221.915	435.881	-324.901	1250.235	111.768	-324.482	1194.589	68.055	-372.221	1361.331	40.690	-301.662	1429.604	80.514	-362.104	978.688	488.572	-691.807	988.565	422.629	-666.179	809.337	116.701	-658.461	740.428	76.176	-599.604	893.914	42.376	-692.546	968.084	77.922	-641.267	1221.799	499.974	-461.232	1290.476	127.960	-413.852	989.213	472.895	-540.191	838.855	122.614	-563.335	1239.191	326.968	-313.385	1141.692	422.414	-314.692	1158.638	308.117	-307.776	909.148	455.456	-698.930	876.541	338.658	-707.153	1137.223	781.804	-293.559	1177.356	689.583	-300.529	1135.571	632.136	-290.042	1033.150	736.748	-292.910	1074.627	635.385	-302.838	1103.686	711.679	-705.444	1083.945	586.584	-679.612	1012.520	729.919	-751.803	973.728	604.528	-719.271	1157.688	954.120	-346.785	911.639	1021.894	-461.351	1157.773	948.662	-688.639	909.610	1025.949	-548.960	964.665	1400.411	-517.547	1072.910	1407.201	-407.748	1062.524	1383.914	-647.489	1117.130	1328.476	-504.452	1115.277	1330.634	-552.184	1046.691	865.809	-424.363	1039.126	847.249	-608.617	1062.810	853.758	-399.745	1057.590	864.189	-625.096	910.625	1023.922	-505.155	1157.730	951.391	-517.712	1042.909	856.529	-516.490	1034.177	987.656	-511.434	1195.578	501.618	-391.139	983.951	480.733	-615.999	1270.356	119.864	-369.167	824.096	119.658	-610.898	1270.356	0.000	-369.167	1361.331	0.000	-301.662	1429.604	0.000	-362.104	824.096	0.000	-610.898	893.914	0.000	-692.546	968.084	0.000	-641.267
175	1.74000	1169.380	503.295	-320.980	1221.924	435.747	-324.985	1250.220	111.816	-324.537	1194.622	68.046	-372.168	1361.336	40.627	-301.764	1429.557	80.514	-362.184	978.681	488.526	-691.770	988.558	422.581	-666.288	809.250	116.769	-658.420	740.392	76.046	-599.583	893.913	42.444	-692.407	967.978	77.985	-641.282	1221.889	500.006	-461.167	1290.534	127.972	-413.824	989.189	472.560	-540.432	838.815	122.601	-563.253	1239.231	326.992	-313.322	1141.672	422.318	-314.590	1158.651	308.181	-307.691	909.152	455.383	-698.854	876.614	338.579	-707.034	1137.259	781.852	-293.490	1177.504	689.609	-300.500	1135.593	632.130	-289.991	1033.146	736.832	-292.765	1074.709	635.379	-302.803	1103.694	711.739	-705.377	1083.991	586.584	-679.593	1012.387	729.948	-751.649	973.676	604.515	-719.167	1157.686	954.106	-346.807	911.614	1021.867	-461.287	1157.763	948.644	-688.555	909.634	1025.892	-548.931	964.516	1400.417	-517.519	1072.809	1407.241	-407.755	1062.441	1383.911	-647.461	1117.130	1328.476	-504.452	1115.308	1330.580	-552.126	1046.701	865.783	-424.321	1039.133	847.217	-608.575	1062.741	853.821	-399.768	1057.653	864.168	-625.056	910.624	1023.879	-505.109	1157.724	951.375	-517.681	1042.917	856.500	-516.448	1034.174	987.627	-511.395	1195.634	501.651	-391.073	983.935	480.543	-616.101	1270.377	119.894	-369.180	824.033	119.685	-610.837	1270.377	0.000	-369.180	1361.336	0.000	-301.764	1429.557	0.000	-362.184	824.033	0.000	-610.837	893.913	0.000	-692.407	967.978	0.000	-641.282
176	1.75000	1169.303	503.260	-320.870	1221.900	435.754	-324.873	1250.232	111.845	-324.419	1194.546	68.099	-372.170	1361.330	40.684	-301.646	1429.639	80.721	-362.079	978.724	488.455	-691.766	988.500	422.604	-666.543	809.274	116.589	-658.387	740.353	76.005	-599.566	893.930	42.579	-692.469	967.974	78.008	-641.297	1221.942	500.053	-461.061	1290.543	128.024	-413.804	989.250	472.825	-540.080	838.768	122.543	-563.284	1239.139	326.962	-313.279	1141.620	422.263	-314.576	1158.624	308.131	-307.642	909.264	455.239	-698.740	876.609	338.551	-707.048	1137.298	781.894	-293.449	1177.549	689.648	-300.434	1135.719	632.240	-289.842	1033.271	737.004	-292.562	1074.794	635.422	-302.741	1103.724	711.660	-705.325	1084.022	586.529	-679.619	1012.426	729.830	-751.636	973.683	604.414	-719.147	1157.687	954.065	-346.790	911.592	1021.817	-461.262	1157.619	948.517	-688.595	909.613	1025.829	-548.872	964.519	1400.223	-517.568	1072.729	1407.143	-407.740	1062.342	1383.799	-647.485	1116.881	1328.321	-504.029	1115.308	1330.580	-552.126	1046.668	865.733	-424.280	1039.033	847.122	-608.526	1062.674	853.734	-399.748	1057.585	864.053	-625.076	910.603	1023.823	-505.067	1157.653	951.291	-517.693	1042.850	856.428	-516.403	1034.128	987.557	-511.380	1195.623	501.656	-390.965	983.987	480.640	-615.923	1270.387	119.935	-369.111	824.021	119.566	-610.835	1270.387	0.000	-369.111	1361.330	0.000	-301.646	1429.639	0.000	-362.079	824.021	0.000	-610.835	893.930	0.000	-692.469	967.974	0.000	-641.297
177	1.76000	1169.309	503.326	-320.743	1221.831	435.730	-324.903	1250.194	111.686	-324.431	1194.574	68.031	-372.154	1361.335	40.652	-301.730	1429.581	80.556	-362.078	978.733	488.424	-691.763	988.592	422.270	-666.276	809.140	116.652	-658.454	740.345	75.954	-599.581	893.845	42.539	-692.490	967.930	78.063	-641.260	1221.941	500.047	-461.031	1290.492	128.012	-413.742	989.255	472.670	-540.350	838.686	122.671	-563.191	1239.098	327.033	-313.189	1141.643	422.336	-314.492	1158.633	308.145	-307.615	909.271	455.226	-698.737	876.609	338.511	-707.064	1137.316	781.924	-293.360	1177.518	689.684	-300.394	1135.697	632.293	-289.744	1033.283	736.951	-292.493	1074.739	635.419	-302.657	1103.617	711.575	-705.359	1083.899	586.378	-679.651	1012.373	729.786	-751.531	973.603	604.370	-719.103	1157.705	954.084	-346.814	911.622	1021.823	-461.174	1157.544	948.477	-688.581	909.567	1025.806	-548.798	964.495	1400.305	-517.628	1072.671	1407.158	-407.735	1062.381	1383.770	-647.441	1116.881	1328.321	-504.029	1115.201	1330.499	-552.130	1046.679	865.739	-424.225	1038.979	847.095	-608.465	1062.736	853.793	-399.649	1057.452	864.034	-624.950	910.594	1023.815	-504.986	1157.625	951.281	-517.697	1042.829	856.417	-516.345	1034.110	987.548	-511.342	1195.625	501.687	-390.887	983.994	480.547	-616.056	1270.343	119.849	-369.086	823.913	119.662	-610.823	1270.343	0.000	-369.086	1361.335	0.000	-301.730	1429.581	0.000	-362.078	823.913	0.000	-610.823	893.845	0.000	-692.490	967.930	0.000	-641.260
